{
  "accessors": [
    {
      "bufferView": 0,
      "componentType": 5126,
      "count": 65535,
      "max": [
        4.3084797859191895,
        14.072563171386719,
        12.470117568969727
      ],
      "min": [
        -7.009016513824463,
        -3.0744307041168213,
        -4.717308044433594
      ],
      "type": "VEC3"
    },
    {
      "bufferView": 0,
      "byteOffset": 786420,
      "componentType": 5126,
      "count": 65535,
      "max": [
        0.9999942779541016,
        0.9999991059303284,
        0.9999605417251587
      ],
      "min": [
        -0.9999774098396301,
        -1.0,
        -0.9999841451644897
      ],
      "type": "VEC3"
    },
    {
      "bufferView": 1,
      "componentType": 5126,
      "count": 65535,
      "max": [
        1.0,
        1.0,
        1.0,
        1.0
      ],
      "min": [
        0.003921568859368563,
        0.03921568766236305,
        0.007843137718737125,
        1.0
      ],
      "type": "VEC4"
    },
    {
      "bufferView": 0,
      "byteOffset": 1572840,
      "componentType": 5126,
      "count": 65535,
      "max": [
        4.326140880584717,
        14.050180435180664,
        12.47943115234375
      ],
      "min": [
        -6.881022930145264,
        -3.0413999557495117,
        -4.677696228027344
      ],
      "type": "VEC3"
    },
    {
      "bufferView": 0,
      "byteOffset": 2359260,
      "componentType": 5126,
      "count": 65535,
      "max": [
        0.9999239444732666,
        0.9999937415122986,
        0.9999605417251587
      ],
      "min": [
        -0.9999662041664124,
        -0.9999998807907104,
        -0.9998589754104614
      ],
      "type": "VEC3"
    },
    {
      "bufferView": 1,
      "byteOffset": 1048560,
      "componentType": 5126,
      "count": 65535,
      "max": [
        1.0,
        1.0,
        1.0,
        1.0
      ],
      "min": [
        0.0,
        0.062745101749897,
        0.01568627543747425,
        1.0
      ],
      "type": "VEC4"
    },
    {
      "bufferView": 0,
      "byteOffset": 3145680,
      "componentType": 5126,
      "count": 65535,
      "max": [
        4.3216233253479,
        14.107810020446777,
        12.545431137084961
      ],
      "min": [
        -6.861455917358398,
        -3.02377986907959,
        -4.575857162475586
      ],
      "type": "VEC3"
    },
    {
      "bufferView": 0,
      "byteOffset": 3932100,
      "componentType": 5126,
      "count": 65535,
      "max": [
        0.9999895691871643,
        0.9999958276748657,
        0.9999008178710938
      ],
      "min": [
        -0.9999980330467224,
        -1.0,
        -0.9999982118606567
      ],
      "type": "VEC3"
    },
    {
      "bufferView": 1,
      "byteOffset": 2097120,
      "componentType": 5126,
      "count": 65535,
      "max": [
        1.0,
        1.0,
        1.0,
        1.0
      ],
      "min": [
        0.027450980618596077,
        0.06666667014360428,
        0.0235294122248888,
        1.0
      ],
      "type": "VEC4"
    },
    {
      "bufferView": 0,
      "byteOffset": 4718520,
      "componentType": 5126,
      "count": 65535,
      "max": [
        4.553750038146973,
        7.948533535003662,
        9.004775047302246
      ],
      "min": [
        -7.029533386230469,
        -3.0383925437927246,
        -5.635408401489258
      ],
      "type": "VEC3"
    },
    {
      "bufferView": 0,
      "byteOffset": 5504940,
      "componentType": 5126,
      "count": 65535,
      "max": [
        0.9999974370002747,
        0.9999985694885254,
        0.9999127388000488
      ],
      "min": [
        -0.9999827742576599,
        -1.0,
        -0.9999768137931824
      ],
      "type": "VEC3"
    },
    {
      "bufferView": 1,
      "byteOffset": 3145680,
      "componentType": 5126,
      "count": 65535,
      "max": [
        1.0,
        1.0,
        1.0,
        1.0
      ],
      "min": [
        0.019607843831181526,
        0.054901961237192154,
        0.007843137718737125,
        1.0
      ],
      "type": "VEC4"
    },
    {
      "bufferView": 0,
      "byteOffset": 6291360,
      "componentType": 5126,
      "count": 65535,
      "max": [
        4.316580772399902,
        14.118215560913086,
        12.614408493041992
      ],
      "min": [
        -6.892411231994629,
        -3.0650389194488525,
        -4.638400077819824
      ],
      "type": "VEC3"
    },
    {
      "bufferView": 0,
      "byteOffset": 7077780,
      "componentType": 5126,
      "count": 65535,
      "max": [
        0.9999859929084778,
        0.9999986886978149,
        0.9999157786369324
      ],
      "min": [
        -0.9999891519546509,
        -1.0,
        -0.9999825358390808
      ],
      "type": "VEC3"
    },
    {
      "bufferView": 1,
      "byteOffset": 4194240,
      "componentType": 5126,
      "count": 65535,
      "max": [
        1.0,
        1.0,
        1.0,
        1.0
      ],
      "min": [
        0.0,
        0.05882352963089943,
        0.0,
        1.0
      ],
      "type": "VEC4"
    },
    {
      "bufferView": 0,
      "byteOffset": 7864200,
      "componentType": 5126,
      "count": 65535,
      "max": [
        4.319197177886963,
        1.7671349048614502,
        9.004433631896973
      ],
      "min": [
        -6.855727195739746,
        -3.023433208465576,
        -4.539644718170166
      ],
      "type": "VEC3"
    },
    {
      "bufferView": 0,
      "byteOffset": 8650620,
      "componentType": 5126,
      "count": 65535,
      "max": [
        0.9999998807907104,
        0.9999997615814209,
        0.9999598860740662
      ],
      "min": [
        -0.9999956488609314,
        -0.9999995827674866,
        -0.9999760389328003
      ],
      "type": "VEC3"
    },
    {
      "bufferView": 1,
      "byteOffset": 5242800,
      "componentType": 5126,
      "count": 65535,
      "max": [
        1.0,
        1.0,
        1.0,
        1.0
      ],
      "min": [
        0.003921568859368563,
        0.062745101749897,
        0.0,
        1.0
      ],
      "type": "VEC4"
    },
    {
      "bufferView": 0,
      "byteOffset": 9437040,
      "componentType": 5126,
      "count": 65535,
      "max": [
        4.324769973754883,
        14.088019371032715,
        12.554443359375
      ],
      "min": [
        -7.132190704345703,
        -3.056776523590088,
        -4.557760238647461
      ],
      "type": "VEC3"
    },
    {
      "bufferView": 0,
      "byteOffset": 10223460,
      "componentType": 5126,
      "count": 65535,
      "max": [
        0.999966025352478,
        0.9999978542327881,
        0.9999809265136719
      ],
      "min": [
        -0.9999955296516418,
        -0.9999996423721313,
        -0.9999799728393555
      ],
      "type": "VEC3"
    },
    {
      "bufferView": 1,
      "byteOffset": 6291360,
      "componentType": 5126,
      "count": 65535,
      "max": [
        1.0,
        1.0,
        1.0,
        1.0
      ],
      "min": [
        0.0,
        0.062745101749897,
        0.027450980618596077,
        1.0
      ],
      "type": "VEC4"
    },
    {
      "bufferView": 0,
      "byteOffset": 11009880,
      "componentType": 5126,
      "count": 49118,
      "max": [
        4.298614978790283,
        1.8953461647033691,
        8.982568740844727
      ],
      "min": [
        -6.937987327575684,
        -3.0038671493530273,
        -4.53111457824707
      ],
      "type": "VEC3"
    },
    {
      "bufferView": 0,
      "byteOffset": 11599296,
      "componentType": 5126,
      "count": 49118,
      "max": [
        0.9999955892562866,
        0.9999996423721313,
        0.9999171495437622
      ],
      "min": [
        -0.9999921917915344,
        -0.9999997615814209,
        -0.9999926090240479
      ],
      "type": "VEC3"
    },
    {
      "bufferView": 1,
      "byteOffset": 7339920,
      "componentType": 5126,
      "count": 49118,
      "max": [
        1.0,
        1.0,
        1.0,
        1.0
      ],
      "min": [
        0.0235294122248888,
        0.06666667014360428,
        0.03529411926865578,
        1.0
      ],
      "type": "VEC4"
    }
  ],
  "asset": {
    "extras": {
      "author": "martimpassos (https://sketchfab.com/martimpassos)",
      "license": "CC-BY-4.0 (http://creativecommons.org/licenses/by/4.0/)",
      "source": "https://sketchfab.com/3d-models/ims-light-e4708f57cfe04cafb5406920220333f0",
      "title": "Ims-light"
    },
    "generator": "Sketchfab-11.67.0",
    "version": "2.0"
  },
  "bufferViews": [
    {
      "buffer": 0,
      "byteLength": 12188712,
      "byteStride": 12,
      "name": "floatBufferViews",
      "target": 34962
    },
    {
      "buffer": 0,
      "byteLength": 8125808,
      "byteOffset": 12188712,
      "byteStride": 16,
      "name": "floatBufferViews",
      "target": 34962
    }
  ],
  "buffers": [
    {
      "byteLength": 20314520,
      "uri": "scene.bin"
    }
  ],
  "materials": [
    {
      "doubleSided": true,
      "name": "Scene_-_Root",
      "pbrMetallicRoughness": {
        "metallicFactor": 0.0,
        "roughnessFactor": 0.6
      }
    }
  ],
  "meshes": [
    {
      "name": "Object_0",
      "primitives": [
        {
          "attributes": {
            "COLOR_0": 2,
            "NORMAL": 1,
            "POSITION": 0
          },
          "material": 0,
          "mode": 0
        }
      ]
    },
    {
      "name": "Object_1",
      "primitives": [
        {
          "attributes": {
            "COLOR_0": 5,
            "NORMAL": 4,
            "POSITION": 3
          },
          "material": 0,
          "mode": 0
        }
      ]
    },
    {
      "name": "Object_2",
      "primitives": [
        {
          "attributes": {
            "COLOR_0": 8,
            "NORMAL": 7,
            "POSITION": 6
          },
          "material": 0,
          "mode": 0
        }
      ]
    },
    {
      "name": "Object_3",
      "primitives": [
        {
          "attributes": {
            "COLOR_0": 11,
            "NORMAL": 10,
            "POSITION": 9
          },
          "material": 0,
          "mode": 0
        }
      ]
    },
    {
      "name": "Object_4",
      "primitives": [
        {
          "attributes": {
            "COLOR_0": 14,
            "NORMAL": 13,
            "POSITION": 12
          },
          "material": 0,
          "mode": 0
        }
      ]
    },
    {
      "name": "Object_5",
      "primitives": [
        {
          "attributes": {
            "COLOR_0": 17,
            "NORMAL": 16,
            "POSITION": 15
          },
          "material": 0,
          "mode": 0
        }
      ]
    },
    {
      "name": "Object_6",
      "primitives": [
        {
          "attributes": {
            "COLOR_0": 20,
            "NORMAL": 19,
            "POSITION": 18
          },
          "material": 0,
          "mode": 0
        }
      ]
    },
    {
      "name": "Object_7",
      "primitives": [
        {
          "attributes": {
            "COLOR_0": 23,
            "NORMAL": 22,
            "POSITION": 21
          },
          "material": 0,
          "mode": 0
        }
      ]
    }
  ],
  "nodes": [
    {
      "children": [
        1
      ],
      "matrix": [
        1.0,
        0.0,
        0.0,
        0.0,
        0.0,
        2.220446049250313e-16,
        -1.0,
        0.0,
        0.0,
        1.0,
        2.220446049250313e-16,
        0.0,
        0.0,
        0.0,
        0.0,
        1.0
      ],
      "name": "Sketchfab_model"
    },
    {
      "children": [
        2,
        3,
        4,
        5,
        6,
        7,
        8,
        9
      ],
      "name": "Geode"
    },
    {
      "mesh": 0,
      "name": "Object_2"
    },
    {
      "mesh": 1,
      "name": "Object_3"
    },
    {
      "mesh": 2,
      "name": "Object_4"
    },
    {
      "mesh": 3,
      "name": "Object_5"
    },
    {
      "mesh": 4,
      "name": "Object_6"
    },
    {
      "mesh": 5,
      "name": "Object_7"
    },
    {
      "mesh": 6,
      "name": "Object_8"
    },
    {
      "mesh": 7,
      "name": "Object_9"
    }
  ],
  "scene": 0,
  "scenes": [
    {
      "name": "Sketchfab_Scene",
      "nodes": [
        0
      ]
    }
  ]
}
